<svg width="36" height="36" viewBox="0 0 36 36" fill="none" xmlns="http://www.w3.org/2000/svg">
<path d="M3.09303 18.522C2.96801 18.1852 2.96801 17.8148 3.09303 17.478C4.31058 14.5258 6.3773 12.0016 9.03118 10.2253C11.6851 8.44913 14.8066 7.50092 18 7.50092C21.1935 7.50092 24.315 8.44913 26.9689 10.2253C29.6228 12.0016 31.6895 14.5258 32.907 17.478C33.032 17.8148 33.032 18.1852 32.907 18.522C31.6895 21.4742 29.6228 23.9984 26.9689 25.7747C24.315 27.5509 21.1935 28.4991 18 28.4991C14.8066 28.4991 11.6851 27.5509 9.03118 25.7747C6.3773 23.9984 4.31058 21.4742 3.09303 18.522Z" stroke="#F97316" stroke-width="2" stroke-linecap="round" stroke-linejoin="round"/>
<path d="M18 22.5C20.4853 22.5 22.5 20.4853 22.5 18C22.5 15.5147 20.4853 13.5 18 13.5C15.5147 13.5 13.5 15.5147 13.5 18C13.5 20.4853 15.5147 22.5 18 22.5Z" stroke="#F97316" stroke-width="2" stroke-linecap="round" stroke-linejoin="round"/>
</svg>
